# Tiled2Unity generated file. Do not modify by hand.
# Wavefront file for 'Central-Hub_mesh_0004.obj'

# Vertices (Count = 920)
v -656 -304 0
v -672 -304 0
v -672 -288 0
v -656 -288 0
v -640 -304 0
v -656 -304 0
v -656 -288 0
v -640 -288 0
v -624 -304 0
v -640 -304 0
v -640 -288 0
v -624 -288 0
v -608 -304 0
v -624 -304 0
v -624 -288 0
v -608 -288 0
v -592 -304 0
v -608 -304 0
v -608 -288 0
v -592 -288 0
v -576 -304 0
v -592 -304 0
v -592 -288 0
v -576 -288 0
v -432 -304 0
v -448 -304 0
v -448 -288 0
v -432 -288 0
v -416 -304 0
v -432 -304 0
v -432 -288 0
v -416 -288 0
v -400 -304 0
v -416 -304 0
v -416 -288 0
v -400 -288 0
v -384 -304 0
v -400 -304 0
v -400 -288 0
v -384 -288 0
v -368 -304 0
v -384 -304 0
v -384 -288 0
v -368 -288 0
v -352 -304 0
v -368 -304 0
v -368 -288 0
v -352 -288 0
v -208 -304 0
v -224 -304 0
v -224 -288 0
v -208 -288 0
v -192 -304 0
v -208 -304 0
v -208 -288 0
v -192 -288 0
v -176 -304 0
v -192 -304 0
v -192 -288 0
v -176 -288 0
v -160 -304 0
v -176 -304 0
v -176 -288 0
v -160 -288 0
v -144 -304 0
v -160 -304 0
v -160 -288 0
v -144 -288 0
v -128 -304 0
v -144 -304 0
v -144 -288 0
v -128 -288 0
v -656 -288 0
v -672 -288 0
v -672 -272 0
v -656 -272 0
v -640 -288 0
v -656 -288 0
v -656 -272 0
v -640 -272 0
v -624 -288 0
v -640 -288 0
v -640 -272 0
v -624 -272 0
v -608 -288 0
v -624 -288 0
v -624 -272 0
v -608 -272 0
v -592 -288 0
v -608 -288 0
v -608 -272 0
v -592 -272 0
v -576 -288 0
v -592 -288 0
v -592 -272 0
v -576 -272 0
v -432 -288 0
v -448 -288 0
v -448 -272 0
v -432 -272 0
v -416 -288 0
v -432 -288 0
v -432 -272 0
v -416 -272 0
v -400 -288 0
v -416 -288 0
v -416 -272 0
v -400 -272 0
v -384 -288 0
v -400 -288 0
v -400 -272 0
v -384 -272 0
v -368 -288 0
v -384 -288 0
v -384 -272 0
v -368 -272 0
v -352 -288 0
v -368 -288 0
v -368 -272 0
v -352 -272 0
v -208 -288 0
v -224 -288 0
v -224 -272 0
v -208 -272 0
v -192 -288 0
v -208 -288 0
v -208 -272 0
v -192 -272 0
v -176 -288 0
v -192 -288 0
v -192 -272 0
v -176 -272 0
v -160 -288 0
v -176 -288 0
v -176 -272 0
v -160 -272 0
v -144 -288 0
v -160 -288 0
v -160 -272 0
v -144 -272 0
v -128 -288 0
v -144 -288 0
v -144 -272 0
v -128 -272 0
v -656 -272 0
v -672 -272 0
v -672 -256 0
v -656 -256 0
v -640 -272 0
v -656 -272 0
v -656 -256 0
v -640 -256 0
v -624 -272 0
v -640 -272 0
v -640 -256 0
v -624 -256 0
v -608 -272 0
v -624 -272 0
v -624 -256 0
v -608 -256 0
v -592 -272 0
v -608 -272 0
v -608 -256 0
v -592 -256 0
v -576 -272 0
v -592 -272 0
v -592 -256 0
v -576 -256 0
v -432 -272 0
v -448 -272 0
v -448 -256 0
v -432 -256 0
v -416 -272 0
v -432 -272 0
v -432 -256 0
v -416 -256 0
v -400 -272 0
v -416 -272 0
v -416 -256 0
v -400 -256 0
v -384 -272 0
v -400 -272 0
v -400 -256 0
v -384 -256 0
v -368 -272 0
v -384 -272 0
v -384 -256 0
v -368 -256 0
v -352 -272 0
v -368 -272 0
v -368 -256 0
v -352 -256 0
v -208 -272 0
v -224 -272 0
v -224 -256 0
v -208 -256 0
v -192 -272 0
v -208 -272 0
v -208 -256 0
v -192 -256 0
v -176 -272 0
v -192 -272 0
v -192 -256 0
v -176 -256 0
v -160 -272 0
v -176 -272 0
v -176 -256 0
v -160 -256 0
v -144 -272 0
v -160 -272 0
v -160 -256 0
v -144 -256 0
v -128 -272 0
v -144 -272 0
v -144 -256 0
v -128 -256 0
v -656 -256 0
v -672 -256 0
v -672 -240 0
v -656 -240 0
v -640 -256 0
v -656 -256 0
v -656 -240 0
v -640 -240 0
v -624 -256 0
v -640 -256 0
v -640 -240 0
v -624 -240 0
v -608 -256 0
v -624 -256 0
v -624 -240 0
v -608 -240 0
v -592 -256 0
v -608 -256 0
v -608 -240 0
v -592 -240 0
v -576 -256 0
v -592 -256 0
v -592 -240 0
v -576 -240 0
v -432 -256 0
v -448 -256 0
v -448 -240 0
v -432 -240 0
v -416 -256 0
v -432 -256 0
v -432 -240 0
v -416 -240 0
v -400 -256 0
v -416 -256 0
v -416 -240 0
v -400 -240 0
v -384 -256 0
v -400 -256 0
v -400 -240 0
v -384 -240 0
v -368 -256 0
v -384 -256 0
v -384 -240 0
v -368 -240 0
v -352 -256 0
v -368 -256 0
v -368 -240 0
v -352 -240 0
v -208 -256 0
v -224 -256 0
v -224 -240 0
v -208 -240 0
v -192 -256 0
v -208 -256 0
v -208 -240 0
v -192 -240 0
v -176 -256 0
v -192 -256 0
v -192 -240 0
v -176 -240 0
v -160 -256 0
v -176 -256 0
v -176 -240 0
v -160 -240 0
v -144 -256 0
v -160 -256 0
v -160 -240 0
v -144 -240 0
v -128 -256 0
v -144 -256 0
v -144 -240 0
v -128 -240 0
v -736 -240 0
v -752 -240 0
v -752 -224 0
v -736 -224 0
v -720 -240 0
v -736 -240 0
v -736 -224 0
v -720 -224 0
v -704 -240 0
v -720 -240 0
v -720 -224 0
v -704 -224 0
v -688 -240 0
v -704 -240 0
v -704 -224 0
v -688 -224 0
v -672 -240 0
v -688 -240 0
v -688 -224 0
v -672 -224 0
v -656 -240 0
v -672 -240 0
v -672 -224 0
v -656 -224 0
v -640 -240 0
v -656 -240 0
v -656 -224 0
v -640 -224 0
v -624 -240 0
v -640 -240 0
v -640 -224 0
v -624 -224 0
v -608 -240 0
v -624 -240 0
v -624 -224 0
v -608 -224 0
v -592 -240 0
v -608 -240 0
v -608 -224 0
v -592 -224 0
v -576 -240 0
v -592 -240 0
v -592 -224 0
v -576 -224 0
v -560 -240 0
v -576 -240 0
v -576 -224 0
v -560 -224 0
v -544 -240 0
v -560 -240 0
v -560 -224 0
v -544 -224 0
v -528 -240 0
v -544 -240 0
v -544 -224 0
v -528 -224 0
v -512 -240 0
v -528 -240 0
v -528 -224 0
v -512 -224 0
v -496 -240 0
v -512 -240 0
v -512 -224 0
v -496 -224 0
v -432 -240 0
v -448 -240 0
v -448 -224 0
v -432 -224 0
v -416 -240 0
v -432 -240 0
v -432 -224 0
v -416 -224 0
v -400 -240 0
v -416 -240 0
v -416 -224 0
v -400 -224 0
v -384 -240 0
v -400 -240 0
v -400 -224 0
v -384 -224 0
v -368 -240 0
v -384 -240 0
v -384 -224 0
v -368 -224 0
v -352 -240 0
v -368 -240 0
v -368 -224 0
v -352 -224 0
v -288 -240 0
v -304 -240 0
v -304 -224 0
v -288 -224 0
v -272 -240 0
v -288 -240 0
v -288 -224 0
v -272 -224 0
v -256 -240 0
v -272 -240 0
v -272 -224 0
v -256 -224 0
v -240 -240 0
v -256 -240 0
v -256 -224 0
v -240 -224 0
v -224 -240 0
v -240 -240 0
v -240 -224 0
v -224 -224 0
v -208 -240 0
v -224 -240 0
v -224 -224 0
v -208 -224 0
v -192 -240 0
v -208 -240 0
v -208 -224 0
v -192 -224 0
v -176 -240 0
v -192 -240 0
v -192 -224 0
v -176 -224 0
v -160 -240 0
v -176 -240 0
v -176 -224 0
v -160 -224 0
v -144 -240 0
v -160 -240 0
v -160 -224 0
v -144 -224 0
v -128 -240 0
v -144 -240 0
v -144 -224 0
v -128 -224 0
v -112 -240 0
v -128 -240 0
v -128 -224 0
v -112 -224 0
v -96 -240 0
v -112 -240 0
v -112 -224 0
v -96 -224 0
v -80 -240 0
v -96 -240 0
v -96 -224 0
v -80 -224 0
v -64 -240 0
v -80 -240 0
v -80 -224 0
v -64 -224 0
v -48 -240 0
v -64 -240 0
v -64 -224 0
v -48 -224 0
v -736 -224 0
v -752 -224 0
v -752 -208 0
v -736 -208 0
v -720 -224 0
v -736 -224 0
v -736 -208 0
v -720 -208 0
v -704 -224 0
v -720 -224 0
v -720 -208 0
v -704 -208 0
v -688 -224 0
v -704 -224 0
v -704 -208 0
v -688 -208 0
v -672 -224 0
v -688 -224 0
v -688 -208 0
v -672 -208 0
v -656 -224 0
v -672 -224 0
v -672 -208 0
v -656 -208 0
v -640 -224 0
v -656 -224 0
v -656 -208 0
v -640 -208 0
v -624 -224 0
v -640 -224 0
v -640 -208 0
v -624 -208 0
v -608 -224 0
v -624 -224 0
v -624 -208 0
v -608 -208 0
v -592 -224 0
v -608 -224 0
v -608 -208 0
v -592 -208 0
v -576 -224 0
v -592 -224 0
v -592 -208 0
v -576 -208 0
v -560 -224 0
v -576 -224 0
v -576 -208 0
v -560 -208 0
v -544 -224 0
v -560 -224 0
v -560 -208 0
v -544 -208 0
v -528 -224 0
v -544 -224 0
v -544 -208 0
v -528 -208 0
v -512 -224 0
v -528 -224 0
v -528 -208 0
v -512 -208 0
v -496 -224 0
v -512 -224 0
v -512 -208 0
v -496 -208 0
v -432 -224 0
v -448 -224 0
v -448 -208 0
v -432 -208 0
v -416 -224 0
v -432 -224 0
v -432 -208 0
v -416 -208 0
v -400 -224 0
v -416 -224 0
v -416 -208 0
v -400 -208 0
v -384 -224 0
v -400 -224 0
v -400 -208 0
v -384 -208 0
v -368 -224 0
v -384 -224 0
v -384 -208 0
v -368 -208 0
v -352 -224 0
v -368 -224 0
v -368 -208 0
v -352 -208 0
v -288 -224 0
v -304 -224 0
v -304 -208 0
v -288 -208 0
v -272 -224 0
v -288 -224 0
v -288 -208 0
v -272 -208 0
v -256 -224 0
v -272 -224 0
v -272 -208 0
v -256 -208 0
v -240 -224 0
v -256 -224 0
v -256 -208 0
v -240 -208 0
v -224 -224 0
v -240 -224 0
v -240 -208 0
v -224 -208 0
v -208 -224 0
v -224 -224 0
v -224 -208 0
v -208 -208 0
v -192 -224 0
v -208 -224 0
v -208 -208 0
v -192 -208 0
v -176 -224 0
v -192 -224 0
v -192 -208 0
v -176 -208 0
v -160 -224 0
v -176 -224 0
v -176 -208 0
v -160 -208 0
v -144 -224 0
v -160 -224 0
v -160 -208 0
v -144 -208 0
v -128 -224 0
v -144 -224 0
v -144 -208 0
v -128 -208 0
v -112 -224 0
v -128 -224 0
v -128 -208 0
v -112 -208 0
v -96 -224 0
v -112 -224 0
v -112 -208 0
v -96 -208 0
v -80 -224 0
v -96 -224 0
v -96 -208 0
v -80 -208 0
v -64 -224 0
v -80 -224 0
v -80 -208 0
v -64 -208 0
v -48 -224 0
v -64 -224 0
v -64 -208 0
v -48 -208 0
v -736 -208 0
v -752 -208 0
v -752 -192 0
v -736 -192 0
v -720 -208 0
v -736 -208 0
v -736 -192 0
v -720 -192 0
v -704 -208 0
v -720 -208 0
v -720 -192 0
v -704 -192 0
v -688 -208 0
v -704 -208 0
v -704 -192 0
v -688 -192 0
v -672 -208 0
v -688 -208 0
v -688 -192 0
v -672 -192 0
v -656 -208 0
v -672 -208 0
v -672 -192 0
v -656 -192 0
v -640 -208 0
v -656 -208 0
v -656 -192 0
v -640 -192 0
v -624 -208 0
v -640 -208 0
v -640 -192 0
v -624 -192 0
v -608 -208 0
v -624 -208 0
v -624 -192 0
v -608 -192 0
v -592 -208 0
v -608 -208 0
v -608 -192 0
v -592 -192 0
v -576 -208 0
v -592 -208 0
v -592 -192 0
v -576 -192 0
v -560 -208 0
v -576 -208 0
v -576 -192 0
v -560 -192 0
v -544 -208 0
v -560 -208 0
v -560 -192 0
v -544 -192 0
v -528 -208 0
v -544 -208 0
v -544 -192 0
v -528 -192 0
v -512 -208 0
v -528 -208 0
v -528 -192 0
v -512 -192 0
v -496 -208 0
v -512 -208 0
v -512 -192 0
v -496 -192 0
v -432 -208 0
v -448 -208 0
v -448 -192 0
v -432 -192 0
v -416 -208 0
v -432 -208 0
v -432 -192 0
v -416 -192 0
v -400 -208 0
v -416 -208 0
v -416 -192 0
v -400 -192 0
v -384 -208 0
v -400 -208 0
v -400 -192 0
v -384 -192 0
v -368 -208 0
v -384 -208 0
v -384 -192 0
v -368 -192 0
v -352 -208 0
v -368 -208 0
v -368 -192 0
v -352 -192 0
v -288 -208 0
v -304 -208 0
v -304 -192 0
v -288 -192 0
v -272 -208 0
v -288 -208 0
v -288 -192 0
v -272 -192 0
v -256 -208 0
v -272 -208 0
v -272 -192 0
v -256 -192 0
v -240 -208 0
v -256 -208 0
v -256 -192 0
v -240 -192 0
v -224 -208 0
v -240 -208 0
v -240 -192 0
v -224 -192 0
v -208 -208 0
v -224 -208 0
v -224 -192 0
v -208 -192 0
v -192 -208 0
v -208 -208 0
v -208 -192 0
v -192 -192 0
v -176 -208 0
v -192 -208 0
v -192 -192 0
v -176 -192 0
v -160 -208 0
v -176 -208 0
v -176 -192 0
v -160 -192 0
v -144 -208 0
v -160 -208 0
v -160 -192 0
v -144 -192 0
v -128 -208 0
v -144 -208 0
v -144 -192 0
v -128 -192 0
v -112 -208 0
v -128 -208 0
v -128 -192 0
v -112 -192 0
v -96 -208 0
v -112 -208 0
v -112 -192 0
v -96 -192 0
v -80 -208 0
v -96 -208 0
v -96 -192 0
v -80 -192 0
v -64 -208 0
v -80 -208 0
v -80 -192 0
v -64 -192 0
v -48 -208 0
v -64 -208 0
v -64 -192 0
v -48 -192 0
v -736 -192 0
v -752 -192 0
v -752 -176 0
v -736 -176 0
v -720 -192 0
v -736 -192 0
v -736 -176 0
v -720 -176 0
v -704 -192 0
v -720 -192 0
v -720 -176 0
v -704 -176 0
v -688 -192 0
v -704 -192 0
v -704 -176 0
v -688 -176 0
v -672 -192 0
v -688 -192 0
v -688 -176 0
v -672 -176 0
v -656 -192 0
v -672 -192 0
v -672 -176 0
v -656 -176 0
v -640 -192 0
v -656 -192 0
v -656 -176 0
v -640 -176 0
v -624 -192 0
v -640 -192 0
v -640 -176 0
v -624 -176 0
v -608 -192 0
v -624 -192 0
v -624 -176 0
v -608 -176 0
v -592 -192 0
v -608 -192 0
v -608 -176 0
v -592 -176 0
v -576 -192 0
v -592 -192 0
v -592 -176 0
v -576 -176 0
v -560 -192 0
v -576 -192 0
v -576 -176 0
v -560 -176 0
v -544 -192 0
v -560 -192 0
v -560 -176 0
v -544 -176 0
v -528 -192 0
v -544 -192 0
v -544 -176 0
v -528 -176 0
v -512 -192 0
v -528 -192 0
v -528 -176 0
v -512 -176 0
v -496 -192 0
v -512 -192 0
v -512 -176 0
v -496 -176 0
v -288 -192 0
v -304 -192 0
v -304 -176 0
v -288 -176 0
v -272 -192 0
v -288 -192 0
v -288 -176 0
v -272 -176 0
v -256 -192 0
v -272 -192 0
v -272 -176 0
v -256 -176 0
v -240 -192 0
v -256 -192 0
v -256 -176 0
v -240 -176 0
v -224 -192 0
v -240 -192 0
v -240 -176 0
v -224 -176 0
v -208 -192 0
v -224 -192 0
v -224 -176 0
v -208 -176 0
v -192 -192 0
v -208 -192 0
v -208 -176 0
v -192 -176 0
v -176 -192 0
v -192 -192 0
v -192 -176 0
v -176 -176 0
v -160 -192 0
v -176 -192 0
v -176 -176 0
v -160 -176 0
v -144 -192 0
v -160 -192 0
v -160 -176 0
v -144 -176 0
v -128 -192 0
v -144 -192 0
v -144 -176 0
v -128 -176 0
v -112 -192 0
v -128 -192 0
v -128 -176 0
v -112 -176 0
v -96 -192 0
v -112 -192 0
v -112 -176 0
v -96 -176 0
v -80 -192 0
v -96 -192 0
v -96 -176 0
v -80 -176 0
v -64 -192 0
v -80 -192 0
v -80 -176 0
v -64 -176 0
v -48 -192 0
v -64 -192 0
v -64 -176 0
v -48 -176 0
v -656 -176 0
v -672 -176 0
v -672 -160 0
v -656 -160 0
v -640 -176 0
v -656 -176 0
v -656 -160 0
v -640 -160 0
v -624 -176 0
v -640 -176 0
v -640 -160 0
v -624 -160 0
v -608 -176 0
v -624 -176 0
v -624 -160 0
v -608 -160 0
v -592 -176 0
v -608 -176 0
v -608 -160 0
v -592 -160 0
v -576 -176 0
v -592 -176 0
v -592 -160 0
v -576 -160 0
v -208 -176 0
v -224 -176 0
v -224 -160 0
v -208 -160 0
v -192 -176 0
v -208 -176 0
v -208 -160 0
v -192 -160 0
v -176 -176 0
v -192 -176 0
v -192 -160 0
v -176 -160 0
v -160 -176 0
v -176 -176 0
v -176 -160 0
v -160 -160 0
v -144 -176 0
v -160 -176 0
v -160 -160 0
v -144 -160 0
v -128 -176 0
v -144 -176 0
v -144 -160 0
v -128 -160 0

# Texture cooridinates (Count = 55)
vt 0.59375 0.7333333
vt 0.625 0.7333333
vt 0.625 0.7666667
vt 0.59375 0.7666667
vt 0.53125 0.7333333
vt 0.5625 0.7333333
vt 0.5625 0.7666667
vt 0.53125 0.7666667
vt 0.5 0.7333333
vt 0.5 0.7666667
vt 0.21875 0
vt 0.25 0
vt 0.25 0.03333336
vt 0.21875 0.03333336
vt 0.15625 0
vt 0.1875 0
vt 0.1875 0.03333336
vt 0.15625 0.03333336
vt 0.125 0
vt 0.125 0.03333336
vt 0.21875 0.06666666
vt 0.25 0.06666666
vt 0.25 0.1
vt 0.21875 0.1
vt 0.1875 0.06666666
vt 0.15625 0.06666666
vt 0.125 0.06666666
vt 0.15625 0.1
vt 0.125 0.1
vt 0.46875 0.1333333
vt 0.5 0.1333333
vt 0.5 0.1666667
vt 0.46875 0.1666667
vt 0.40625 0.2
vt 0.4375 0.2
vt 0.4375 0.2333333
vt 0.40625 0.2333333
vt 0.375 0.1333333
vt 0.40625 0.1333333
vt 0.40625 0.1666667
vt 0.375 0.1666667
vt 0.46875 0.2333333
vt 0.5 0.2333333
vt 0.5 0.2666667
vt 0.46875 0.2666667
vt 0.4375 0.2666667
vt 0.375 0.2333333
vt 0.40625 0.2666667
vt 0.375 0.2666667
vt 0.1875 0.1
vt 0.25 0.1333333
vt 0.21875 0.1333333
vt 0.1875 0.1333333
vt 0.15625 0.1333333
vt 0.125 0.1333333

# Normal
vn 0 0 -1

# Mesh description
g Central-Hub_mesh_0004

# Faces
f 1/1/1 2/2/1 3/3/1 4/4/1
f 5/5/1 6/6/1 7/7/1 8/8/1
f 9/5/1 10/6/1 11/7/1 12/8/1
f 13/5/1 14/6/1 15/7/1 16/8/1
f 17/5/1 18/6/1 19/7/1 20/8/1
f 21/9/1 22/5/1 23/8/1 24/10/1
f 25/11/1 26/12/1 27/13/1 28/14/1
f 29/15/1 30/16/1 31/17/1 32/18/1
f 33/15/1 34/16/1 35/17/1 36/18/1
f 37/15/1 38/16/1 39/17/1 40/18/1
f 41/15/1 42/16/1 43/17/1 44/18/1
f 45/19/1 46/15/1 47/18/1 48/20/1
f 49/1/1 50/2/1 51/3/1 52/4/1
f 53/5/1 54/6/1 55/7/1 56/8/1
f 57/5/1 58/6/1 59/7/1 60/8/1
f 61/5/1 62/6/1 63/7/1 64/8/1
f 65/5/1 66/6/1 67/7/1 68/8/1
f 69/9/1 70/5/1 71/8/1 72/10/1
f 73/1/1 74/2/1 75/3/1 76/4/1
f 77/5/1 78/6/1 79/7/1 80/8/1
f 81/5/1 82/6/1 83/7/1 84/8/1
f 85/5/1 86/6/1 87/7/1 88/8/1
f 89/5/1 90/6/1 91/7/1 92/8/1
f 93/9/1 94/5/1 95/8/1 96/10/1
f 97/21/1 98/22/1 99/23/1 100/24/1
f 101/18/1 102/17/1 103/25/1 104/26/1
f 105/18/1 106/17/1 107/25/1 108/26/1
f 109/18/1 110/17/1 111/25/1 112/26/1
f 113/18/1 114/17/1 115/25/1 116/26/1
f 117/27/1 118/26/1 119/28/1 120/29/1
f 121/1/1 122/2/1 123/3/1 124/4/1
f 125/5/1 126/6/1 127/7/1 128/8/1
f 129/5/1 130/6/1 131/7/1 132/8/1
f 133/5/1 134/6/1 135/7/1 136/8/1
f 137/5/1 138/6/1 139/7/1 140/8/1
f 141/9/1 142/5/1 143/8/1 144/10/1
f 145/1/1 146/2/1 147/3/1 148/4/1
f 149/5/1 150/6/1 151/7/1 152/8/1
f 153/5/1 154/6/1 155/7/1 156/8/1
f 157/5/1 158/6/1 159/7/1 160/8/1
f 161/5/1 162/6/1 163/7/1 164/8/1
f 165/9/1 166/5/1 167/8/1 168/10/1
f 169/21/1 170/22/1 171/23/1 172/24/1
f 173/30/1 174/31/1 175/32/1 176/33/1
f 177/34/1 178/35/1 179/36/1 180/37/1
f 181/34/1 182/35/1 183/36/1 184/37/1
f 185/38/1 186/39/1 187/40/1 188/41/1
f 189/27/1 190/26/1 191/28/1 192/29/1
f 193/1/1 194/2/1 195/3/1 196/4/1
f 197/5/1 198/6/1 199/7/1 200/8/1
f 201/5/1 202/6/1 203/7/1 204/8/1
f 205/5/1 206/6/1 207/7/1 208/8/1
f 209/5/1 210/6/1 211/7/1 212/8/1
f 213/9/1 214/5/1 215/8/1 216/10/1
f 217/1/1 218/2/1 219/3/1 220/4/1
f 221/5/1 222/6/1 223/7/1 224/8/1
f 225/5/1 226/6/1 227/7/1 228/8/1
f 229/5/1 230/6/1 231/7/1 232/8/1
f 233/5/1 234/6/1 235/7/1 236/8/1
f 237/9/1 238/5/1 239/8/1 240/10/1
f 241/21/1 242/22/1 243/23/1 244/24/1
f 245/42/1 246/43/1 247/44/1 248/45/1
f 249/36/1 250/42/1 251/45/1 252/46/1
f 253/36/1 254/42/1 255/45/1 256/46/1
f 257/47/1 258/37/1 259/48/1 260/49/1
f 261/27/1 262/26/1 263/28/1 264/29/1
f 265/1/1 266/2/1 267/3/1 268/4/1
f 269/5/1 270/6/1 271/7/1 272/8/1
f 273/5/1 274/6/1 275/7/1 276/8/1
f 277/5/1 278/6/1 279/7/1 280/8/1
f 281/5/1 282/6/1 283/7/1 284/8/1
f 285/9/1 286/5/1 287/8/1 288/10/1
f 289/1/1 290/2/1 291/3/1 292/4/1
f 293/5/1 294/6/1 295/7/1 296/8/1
f 297/5/1 298/6/1 299/7/1 300/8/1
f 301/5/1 302/6/1 303/7/1 304/8/1
f 305/5/1 306/6/1 307/7/1 308/8/1
f 309/1/1 310/2/1 311/3/1 312/4/1
f 313/5/1 314/6/1 315/7/1 316/8/1
f 317/5/1 318/6/1 319/7/1 320/8/1
f 321/5/1 322/6/1 323/7/1 324/8/1
f 325/5/1 326/6/1 327/7/1 328/8/1
f 329/9/1 330/5/1 331/8/1 332/10/1
f 333/5/1 334/6/1 335/7/1 336/8/1
f 337/5/1 338/6/1 339/7/1 340/8/1
f 341/5/1 342/6/1 343/7/1 344/8/1
f 345/5/1 346/6/1 347/7/1 348/8/1
f 349/9/1 350/5/1 351/8/1 352/10/1
f 353/21/1 354/22/1 355/23/1 356/24/1
f 357/18/1 358/17/1 359/25/1 360/26/1
f 361/18/1 362/17/1 363/25/1 364/26/1
f 365/18/1 366/17/1 367/25/1 368/26/1
f 369/18/1 370/17/1 371/25/1 372/26/1
f 373/27/1 374/26/1 375/28/1 376/29/1
f 377/1/1 378/2/1 379/3/1 380/4/1
f 381/5/1 382/6/1 383/7/1 384/8/1
f 385/5/1 386/6/1 387/7/1 388/8/1
f 389/5/1 390/6/1 391/7/1 392/8/1
f 393/5/1 394/6/1 395/7/1 396/8/1
f 397/1/1 398/2/1 399/3/1 400/4/1
f 401/5/1 402/6/1 403/7/1 404/8/1
f 405/5/1 406/6/1 407/7/1 408/8/1
f 409/5/1 410/6/1 411/7/1 412/8/1
f 413/5/1 414/6/1 415/7/1 416/8/1
f 417/9/1 418/5/1 419/8/1 420/10/1
f 421/5/1 422/6/1 423/7/1 424/8/1
f 425/5/1 426/6/1 427/7/1 428/8/1
f 429/5/1 430/6/1 431/7/1 432/8/1
f 433/5/1 434/6/1 435/7/1 436/8/1
f 437/9/1 438/5/1 439/8/1 440/10/1
f 441/1/1 442/2/1 443/3/1 444/4/1
f 445/5/1 446/6/1 447/7/1 448/8/1
f 449/5/1 450/6/1 451/7/1 452/8/1
f 453/5/1 454/6/1 455/7/1 456/8/1
f 457/5/1 458/6/1 459/7/1 460/8/1
f 461/1/1 462/2/1 463/3/1 464/4/1
f 465/5/1 466/6/1 467/7/1 468/8/1
f 469/5/1 470/6/1 471/7/1 472/8/1
f 473/5/1 474/6/1 475/7/1 476/8/1
f 477/5/1 478/6/1 479/7/1 480/8/1
f 481/9/1 482/5/1 483/8/1 484/10/1
f 485/5/1 486/6/1 487/7/1 488/8/1
f 489/5/1 490/6/1 491/7/1 492/8/1
f 493/5/1 494/6/1 495/7/1 496/8/1
f 497/5/1 498/6/1 499/7/1 500/8/1
f 501/9/1 502/5/1 503/8/1 504/10/1
f 505/21/1 506/22/1 507/23/1 508/24/1
f 509/26/1 510/25/1 511/50/1 512/28/1
f 513/26/1 514/25/1 515/50/1 516/28/1
f 517/26/1 518/25/1 519/50/1 520/28/1
f 521/26/1 522/25/1 523/50/1 524/28/1
f 525/27/1 526/26/1 527/28/1 528/29/1
f 529/1/1 530/2/1 531/3/1 532/4/1
f 533/5/1 534/6/1 535/7/1 536/8/1
f 537/5/1 538/6/1 539/7/1 540/8/1
f 541/5/1 542/6/1 543/7/1 544/8/1
f 545/5/1 546/6/1 547/7/1 548/8/1
f 549/1/1 550/2/1 551/3/1 552/4/1
f 553/5/1 554/6/1 555/7/1 556/8/1
f 557/5/1 558/6/1 559/7/1 560/8/1
f 561/5/1 562/6/1 563/7/1 564/8/1
f 565/5/1 566/6/1 567/7/1 568/8/1
f 569/9/1 570/5/1 571/8/1 572/10/1
f 573/5/1 574/6/1 575/7/1 576/8/1
f 577/5/1 578/6/1 579/7/1 580/8/1
f 581/5/1 582/6/1 583/7/1 584/8/1
f 585/5/1 586/6/1 587/7/1 588/8/1
f 589/9/1 590/5/1 591/8/1 592/10/1
f 593/1/1 594/2/1 595/3/1 596/4/1
f 597/5/1 598/6/1 599/7/1 600/8/1
f 601/5/1 602/6/1 603/7/1 604/8/1
f 605/5/1 606/6/1 607/7/1 608/8/1
f 609/5/1 610/6/1 611/7/1 612/8/1
f 613/1/1 614/2/1 615/3/1 616/4/1
f 617/5/1 618/6/1 619/7/1 620/8/1
f 621/5/1 622/6/1 623/7/1 624/8/1
f 625/5/1 626/6/1 627/7/1 628/8/1
f 629/5/1 630/6/1 631/7/1 632/8/1
f 633/9/1 634/5/1 635/8/1 636/10/1
f 637/5/1 638/6/1 639/7/1 640/8/1
f 641/5/1 642/6/1 643/7/1 644/8/1
f 645/5/1 646/6/1 647/7/1 648/8/1
f 649/5/1 650/6/1 651/7/1 652/8/1
f 653/9/1 654/5/1 655/8/1 656/10/1
f 657/24/1 658/23/1 659/51/1 660/52/1
f 661/28/1 662/50/1 663/53/1 664/54/1
f 665/28/1 666/50/1 667/53/1 668/54/1
f 669/28/1 670/50/1 671/53/1 672/54/1
f 673/28/1 674/50/1 675/53/1 676/54/1
f 677/29/1 678/28/1 679/54/1 680/55/1
f 681/1/1 682/2/1 683/3/1 684/4/1
f 685/5/1 686/6/1 687/7/1 688/8/1
f 689/5/1 690/6/1 691/7/1 692/8/1
f 693/5/1 694/6/1 695/7/1 696/8/1
f 697/5/1 698/6/1 699/7/1 700/8/1
f 701/1/1 702/2/1 703/3/1 704/4/1
f 705/5/1 706/6/1 707/7/1 708/8/1
f 709/5/1 710/6/1 711/7/1 712/8/1
f 713/5/1 714/6/1 715/7/1 716/8/1
f 717/5/1 718/6/1 719/7/1 720/8/1
f 721/9/1 722/5/1 723/8/1 724/10/1
f 725/5/1 726/6/1 727/7/1 728/8/1
f 729/5/1 730/6/1 731/7/1 732/8/1
f 733/5/1 734/6/1 735/7/1 736/8/1
f 737/5/1 738/6/1 739/7/1 740/8/1
f 741/9/1 742/5/1 743/8/1 744/10/1
f 745/1/1 746/2/1 747/3/1 748/4/1
f 749/5/1 750/6/1 751/7/1 752/8/1
f 753/5/1 754/6/1 755/7/1 756/8/1
f 757/5/1 758/6/1 759/7/1 760/8/1
f 761/5/1 762/6/1 763/7/1 764/8/1
f 765/1/1 766/2/1 767/3/1 768/4/1
f 769/5/1 770/6/1 771/7/1 772/8/1
f 773/5/1 774/6/1 775/7/1 776/8/1
f 777/5/1 778/6/1 779/7/1 780/8/1
f 781/5/1 782/6/1 783/7/1 784/8/1
f 785/9/1 786/5/1 787/8/1 788/10/1
f 789/5/1 790/6/1 791/7/1 792/8/1
f 793/5/1 794/6/1 795/7/1 796/8/1
f 797/5/1 798/6/1 799/7/1 800/8/1
f 801/5/1 802/6/1 803/7/1 804/8/1
f 805/9/1 806/5/1 807/8/1 808/10/1
f 809/1/1 810/2/1 811/3/1 812/4/1
f 813/5/1 814/6/1 815/7/1 816/8/1
f 817/5/1 818/6/1 819/7/1 820/8/1
f 821/5/1 822/6/1 823/7/1 824/8/1
f 825/5/1 826/6/1 827/7/1 828/8/1
f 829/1/1 830/2/1 831/3/1 832/4/1
f 833/5/1 834/6/1 835/7/1 836/8/1
f 837/5/1 838/6/1 839/7/1 840/8/1
f 841/5/1 842/6/1 843/7/1 844/8/1
f 845/5/1 846/6/1 847/7/1 848/8/1
f 849/9/1 850/5/1 851/8/1 852/10/1
f 853/5/1 854/6/1 855/7/1 856/8/1
f 857/5/1 858/6/1 859/7/1 860/8/1
f 861/5/1 862/6/1 863/7/1 864/8/1
f 865/5/1 866/6/1 867/7/1 868/8/1
f 869/9/1 870/5/1 871/8/1 872/10/1
f 873/1/1 874/2/1 875/3/1 876/4/1
f 877/5/1 878/6/1 879/7/1 880/8/1
f 881/5/1 882/6/1 883/7/1 884/8/1
f 885/5/1 886/6/1 887/7/1 888/8/1
f 889/5/1 890/6/1 891/7/1 892/8/1
f 893/9/1 894/5/1 895/8/1 896/10/1
f 897/1/1 898/2/1 899/3/1 900/4/1
f 901/5/1 902/6/1 903/7/1 904/8/1
f 905/5/1 906/6/1 907/7/1 908/8/1
f 909/5/1 910/6/1 911/7/1 912/8/1
f 913/5/1 914/6/1 915/7/1 916/8/1
f 917/9/1 918/5/1 919/8/1 920/10/1

