# Tiled2Unity generated file. Do not modify by hand.
# Wavefront file for 'Central-Hub_mesh_0005.obj'

# Vertices (Count = 128)
v -624 -304 0
v -640 -304 0
v -640 -288 0
v -624 -288 0
v -608 -304 0
v -624 -304 0
v -624 -288 0
v -608 -288 0
v -176 -304 0
v -192 -304 0
v -192 -288 0
v -176 -288 0
v -160 -304 0
v -176 -304 0
v -176 -288 0
v -160 -288 0
v -624 -288 0
v -640 -288 0
v -640 -272 0
v -624 -272 0
v -608 -288 0
v -624 -288 0
v -624 -272 0
v -608 -272 0
v -176 -288 0
v -192 -288 0
v -192 -272 0
v -176 -272 0
v -160 -288 0
v -176 -288 0
v -176 -272 0
v -160 -272 0
v -624 -272 0
v -640 -272 0
v -640 -256 0
v -624 -256 0
v -608 -272 0
v -624 -272 0
v -624 -256 0
v -608 -256 0
v -176 -272 0
v -192 -272 0
v -192 -256 0
v -176 -256 0
v -160 -272 0
v -176 -272 0
v -176 -256 0
v -160 -256 0
v -624 -256 0
v -640 -256 0
v -640 -240 0
v -624 -240 0
v -608 -256 0
v -624 -256 0
v -624 -240 0
v -608 -240 0
v -176 -256 0
v -192 -256 0
v -192 -240 0
v -176 -240 0
v -160 -256 0
v -176 -256 0
v -176 -240 0
v -160 -240 0
v -704 -224 0
v -720 -224 0
v -720 -208 0
v -704 -208 0
v -688 -224 0
v -704 -224 0
v -704 -208 0
v -688 -208 0
v -544 -224 0
v -560 -224 0
v -560 -208 0
v -544 -208 0
v -528 -224 0
v -544 -224 0
v -544 -208 0
v -528 -208 0
v -256 -224 0
v -272 -224 0
v -272 -208 0
v -256 -208 0
v -240 -224 0
v -256 -224 0
v -256 -208 0
v -240 -208 0
v -96 -224 0
v -112 -224 0
v -112 -208 0
v -96 -208 0
v -80 -224 0
v -96 -224 0
v -96 -208 0
v -80 -208 0
v -704 -208 0
v -720 -208 0
v -720 -192 0
v -704 -192 0
v -688 -208 0
v -704 -208 0
v -704 -192 0
v -688 -192 0
v -544 -208 0
v -560 -208 0
v -560 -192 0
v -544 -192 0
v -528 -208 0
v -544 -208 0
v -544 -192 0
v -528 -192 0
v -256 -208 0
v -272 -208 0
v -272 -192 0
v -256 -192 0
v -240 -208 0
v -256 -208 0
v -256 -192 0
v -240 -192 0
v -96 -208 0
v -112 -208 0
v -112 -192 0
v -96 -192 0
v -80 -208 0
v -96 -208 0
v -96 -192 0
v -80 -192 0

# Texture cooridinates (Count = 24)
vt 0.53125 0.75
vt 0.5625 0.75
vt 0.5625 0.78125
vt 0.53125 0.78125
vt 0.5 0.75
vt 0.5 0.78125
vt 0.5625 0.8125
vt 0.53125 0.8125
vt 0.5 0.8125
vt 0.5625 0.84375
vt 0.53125 0.84375
vt 0.5 0.84375
vt 0.5625 0.875
vt 0.53125 0.875
vt 0.5 0.875
vt 0.78125 0.75
vt 0.8125 0.75
vt 0.8125 0.78125
vt 0.78125 0.78125
vt 0.75 0.75
vt 0.75 0.78125
vt 0.8125 0.8125
vt 0.78125 0.8125
vt 0.75 0.8125

# Normal
vn 0 0 -1

# Mesh description
g Central-Hub_mesh_0005

# Faces
f 1/1/1 2/2/1 3/3/1 4/4/1
f 5/5/1 6/1/1 7/4/1 8/6/1
f 9/1/1 10/2/1 11/3/1 12/4/1
f 13/5/1 14/1/1 15/4/1 16/6/1
f 17/4/1 18/3/1 19/7/1 20/8/1
f 21/6/1 22/4/1 23/8/1 24/9/1
f 25/4/1 26/3/1 27/7/1 28/8/1
f 29/6/1 30/4/1 31/8/1 32/9/1
f 33/8/1 34/7/1 35/10/1 36/11/1
f 37/9/1 38/8/1 39/11/1 40/12/1
f 41/8/1 42/7/1 43/10/1 44/11/1
f 45/9/1 46/8/1 47/11/1 48/12/1
f 49/11/1 50/10/1 51/13/1 52/14/1
f 53/12/1 54/11/1 55/14/1 56/15/1
f 57/11/1 58/10/1 59/13/1 60/14/1
f 61/12/1 62/11/1 63/14/1 64/15/1
f 65/16/1 66/17/1 67/18/1 68/19/1
f 69/20/1 70/16/1 71/19/1 72/21/1
f 73/16/1 74/17/1 75/18/1 76/19/1
f 77/20/1 78/16/1 79/19/1 80/21/1
f 81/16/1 82/17/1 83/18/1 84/19/1
f 85/20/1 86/16/1 87/19/1 88/21/1
f 89/16/1 90/17/1 91/18/1 92/19/1
f 93/20/1 94/16/1 95/19/1 96/21/1
f 97/19/1 98/18/1 99/22/1 100/23/1
f 101/21/1 102/19/1 103/23/1 104/24/1
f 105/19/1 106/18/1 107/22/1 108/23/1
f 109/21/1 110/19/1 111/23/1 112/24/1
f 113/19/1 114/18/1 115/22/1 116/23/1
f 117/21/1 118/19/1 119/23/1 120/24/1
f 121/19/1 122/18/1 123/22/1 124/23/1
f 125/21/1 126/19/1 127/23/1 128/24/1

