# Tiled2Unity generated file. Do not modify by hand.
# Wavefront file for 'Central-Hub_mesh_0009.obj'

# Vertices (Count = 608)
v -704 -448 0
v -720 -448 0
v -720 -432 0
v -704 -432 0
v -688 -448 0
v -704 -448 0
v -704 -432 0
v -688 -432 0
v -672 -448 0
v -688 -448 0
v -688 -432 0
v -672 -432 0
v -656 -448 0
v -672 -448 0
v -672 -432 0
v -656 -432 0
v -640 -448 0
v -656 -448 0
v -656 -432 0
v -640 -432 0
v -624 -448 0
v -640 -448 0
v -640 -432 0
v -624 -432 0
v -704 -432 0
v -720 -432 0
v -720 -416 0
v -704 -416 0
v -688 -432 0
v -704 -432 0
v -704 -416 0
v -688 -416 0
v -672 -432 0
v -688 -432 0
v -688 -416 0
v -672 -416 0
v -656 -432 0
v -672 -432 0
v -672 -416 0
v -656 -416 0
v -640 -432 0
v -656 -432 0
v -656 -416 0
v -640 -416 0
v -624 -432 0
v -640 -432 0
v -640 -416 0
v -624 -416 0
v -704 -416 0
v -720 -416 0
v -720 -400 0
v -704 -400 0
v -688 -416 0
v -704 -416 0
v -704 -400 0
v -688 -400 0
v -672 -416 0
v -688 -416 0
v -688 -400 0
v -672 -400 0
v -656 -416 0
v -672 -416 0
v -672 -400 0
v -656 -400 0
v -640 -416 0
v -656 -416 0
v -656 -400 0
v -640 -400 0
v -624 -416 0
v -640 -416 0
v -640 -400 0
v -624 -400 0
v -704 -400 0
v -720 -400 0
v -720 -384 0
v -704 -384 0
v -688 -400 0
v -704 -400 0
v -704 -384 0
v -688 -384 0
v -672 -400 0
v -688 -400 0
v -688 -384 0
v -672 -384 0
v -656 -400 0
v -672 -400 0
v -672 -384 0
v -656 -384 0
v -640 -400 0
v -656 -400 0
v -656 -384 0
v -640 -384 0
v -624 -400 0
v -640 -400 0
v -640 -384 0
v -624 -384 0
v -784 -352 0
v -800 -352 0
v -800 -336 0
v -784 -336 0
v -768 -352 0
v -784 -352 0
v -784 -336 0
v -768 -336 0
v -752 -352 0
v -768 -352 0
v -768 -336 0
v -752 -336 0
v -736 -352 0
v -752 -352 0
v -752 -336 0
v -736 -336 0
v -784 -336 0
v -800 -336 0
v -800 -320 0
v -784 -320 0
v -768 -336 0
v -784 -336 0
v -784 -320 0
v -768 -320 0
v -752 -336 0
v -768 -336 0
v -768 -320 0
v -752 -320 0
v -736 -336 0
v -752 -336 0
v -752 -320 0
v -736 -320 0
v -784 -320 0
v -800 -320 0
v -800 -304 0
v -784 -304 0
v -768 -320 0
v -784 -320 0
v -784 -304 0
v -768 -304 0
v -752 -320 0
v -768 -320 0
v -768 -304 0
v -752 -304 0
v -736 -320 0
v -752 -320 0
v -752 -304 0
v -736 -304 0
v -64 -320 0
v -80 -320 0
v -80 -304 0
v -64 -304 0
v -48 -320 0
v -64 -320 0
v -64 -304 0
v -48 -304 0
v -32 -320 0
v -48 -320 0
v -48 -304 0
v -32 -304 0
v -16 -320 0
v -32 -320 0
v -32 -304 0
v -16 -304 0
v -784 -304 0
v -800 -304 0
v -800 -288 0
v -784 -288 0
v -768 -304 0
v -784 -304 0
v -784 -288 0
v -768 -288 0
v -752 -304 0
v -768 -304 0
v -768 -288 0
v -752 -288 0
v -736 -304 0
v -752 -304 0
v -752 -288 0
v -736 -288 0
v -64 -304 0
v -80 -304 0
v -80 -288 0
v -64 -288 0
v -48 -304 0
v -64 -304 0
v -64 -288 0
v -48 -288 0
v -32 -304 0
v -48 -304 0
v -48 -288 0
v -32 -288 0
v -16 -304 0
v -32 -304 0
v -32 -288 0
v -16 -288 0
v -784 -288 0
v -800 -288 0
v -800 -272 0
v -784 -272 0
v -768 -288 0
v -784 -288 0
v -784 -272 0
v -768 -272 0
v -752 -288 0
v -768 -288 0
v -768 -272 0
v -752 -272 0
v -736 -288 0
v -752 -288 0
v -752 -272 0
v -736 -272 0
v -64 -288 0
v -80 -288 0
v -80 -272 0
v -64 -272 0
v -48 -288 0
v -64 -288 0
v -64 -272 0
v -48 -272 0
v -32 -288 0
v -48 -288 0
v -48 -272 0
v -32 -272 0
v -16 -288 0
v -32 -288 0
v -32 -272 0
v -16 -272 0
v -784 -272 0
v -800 -272 0
v -800 -256 0
v -784 -256 0
v -768 -272 0
v -784 -272 0
v -784 -256 0
v -768 -256 0
v -752 -272 0
v -768 -272 0
v -768 -256 0
v -752 -256 0
v -736 -272 0
v -752 -272 0
v -752 -256 0
v -736 -256 0
v -64 -272 0
v -80 -272 0
v -80 -256 0
v -64 -256 0
v -48 -272 0
v -64 -272 0
v -64 -256 0
v -48 -256 0
v -32 -272 0
v -48 -272 0
v -48 -256 0
v -32 -256 0
v -16 -272 0
v -32 -272 0
v -32 -256 0
v -16 -256 0
v -784 -256 0
v -800 -256 0
v -800 -240 0
v -784 -240 0
v -768 -256 0
v -784 -256 0
v -784 -240 0
v -768 -240 0
v -752 -256 0
v -768 -256 0
v -768 -240 0
v -752 -240 0
v -736 -256 0
v -752 -256 0
v -752 -240 0
v -736 -240 0
v -64 -256 0
v -80 -256 0
v -80 -240 0
v -64 -240 0
v -48 -256 0
v -64 -256 0
v -64 -240 0
v -48 -240 0
v -32 -256 0
v -48 -256 0
v -48 -240 0
v -32 -240 0
v -16 -256 0
v -32 -256 0
v -32 -240 0
v -16 -240 0
v -784 -240 0
v -800 -240 0
v -800 -224 0
v -784 -224 0
v -768 -240 0
v -784 -240 0
v -784 -224 0
v -768 -224 0
v -752 -240 0
v -768 -240 0
v -768 -224 0
v -752 -224 0
v -736 -240 0
v -752 -240 0
v -752 -224 0
v -736 -224 0
v -64 -240 0
v -80 -240 0
v -80 -224 0
v -64 -224 0
v -48 -240 0
v -64 -240 0
v -64 -224 0
v -48 -224 0
v -32 -240 0
v -48 -240 0
v -48 -224 0
v -32 -224 0
v -16 -240 0
v -32 -240 0
v -32 -224 0
v -16 -224 0
v -64 -224 0
v -80 -224 0
v -80 -208 0
v -64 -208 0
v -48 -224 0
v -64 -224 0
v -64 -208 0
v -48 -208 0
v -32 -224 0
v -48 -224 0
v -48 -208 0
v -32 -208 0
v -16 -224 0
v -32 -224 0
v -32 -208 0
v -16 -208 0
v -64 -208 0
v -80 -208 0
v -80 -192 0
v -64 -192 0
v -48 -208 0
v -64 -208 0
v -64 -192 0
v -48 -192 0
v -32 -208 0
v -48 -208 0
v -48 -192 0
v -32 -192 0
v -16 -208 0
v -32 -208 0
v -32 -192 0
v -16 -192 0
v -608 -128 0
v -624 -128 0
v -624 -112 0
v -608 -112 0
v -592 -128 0
v -608 -128 0
v -608 -112 0
v -592 -112 0
v -576 -128 0
v -592 -128 0
v -592 -112 0
v -576 -112 0
v -560 -128 0
v -576 -128 0
v -576 -112 0
v -560 -112 0
v -80 -128 0
v -96 -128 0
v -96 -112 0
v -80 -112 0
v -64 -128 0
v -80 -128 0
v -80 -112 0
v -64 -112 0
v -48 -128 0
v -64 -128 0
v -64 -112 0
v -48 -112 0
v -32 -128 0
v -48 -128 0
v -48 -112 0
v -32 -112 0
v -608 -112 0
v -624 -112 0
v -624 -96 0
v -608 -96 0
v -592 -112 0
v -608 -112 0
v -608 -96 0
v -592 -96 0
v -576 -112 0
v -592 -112 0
v -592 -96 0
v -576 -96 0
v -560 -112 0
v -576 -112 0
v -576 -96 0
v -560 -96 0
v -80 -112 0
v -96 -112 0
v -96 -96 0
v -80 -96 0
v -64 -112 0
v -80 -112 0
v -80 -96 0
v -64 -96 0
v -48 -112 0
v -64 -112 0
v -64 -96 0
v -48 -96 0
v -32 -112 0
v -48 -112 0
v -48 -96 0
v -32 -96 0
v -608 -96 0
v -624 -96 0
v -624 -80 0
v -608 -80 0
v -592 -96 0
v -608 -96 0
v -608 -80 0
v -592 -80 0
v -576 -96 0
v -592 -96 0
v -592 -80 0
v -576 -80 0
v -560 -96 0
v -576 -96 0
v -576 -80 0
v -560 -80 0
v -80 -96 0
v -96 -96 0
v -96 -80 0
v -80 -80 0
v -64 -96 0
v -80 -96 0
v -80 -80 0
v -64 -80 0
v -48 -96 0
v -64 -96 0
v -64 -80 0
v -48 -80 0
v -32 -96 0
v -48 -96 0
v -48 -80 0
v -32 -80 0
v -608 -80 0
v -624 -80 0
v -624 -64 0
v -608 -64 0
v -592 -80 0
v -608 -80 0
v -608 -64 0
v -592 -64 0
v -576 -80 0
v -592 -80 0
v -592 -64 0
v -576 -64 0
v -560 -80 0
v -576 -80 0
v -576 -64 0
v -560 -64 0
v -80 -80 0
v -96 -80 0
v -96 -64 0
v -80 -64 0
v -64 -80 0
v -80 -80 0
v -80 -64 0
v -64 -64 0
v -48 -80 0
v -64 -80 0
v -64 -64 0
v -48 -64 0
v -32 -80 0
v -48 -80 0
v -48 -64 0
v -32 -64 0
v -608 -64 0
v -624 -64 0
v -624 -48 0
v -608 -48 0
v -592 -64 0
v -608 -64 0
v -608 -48 0
v -592 -48 0
v -576 -64 0
v -592 -64 0
v -592 -48 0
v -576 -48 0
v -560 -64 0
v -576 -64 0
v -576 -48 0
v -560 -48 0
v -80 -64 0
v -96 -64 0
v -96 -48 0
v -80 -48 0
v -64 -64 0
v -80 -64 0
v -80 -48 0
v -64 -48 0
v -48 -64 0
v -64 -64 0
v -64 -48 0
v -48 -48 0
v -32 -64 0
v -48 -64 0
v -48 -48 0
v -32 -48 0
v -608 -48 0
v -624 -48 0
v -624 -32 0
v -608 -32 0
v -592 -48 0
v -608 -48 0
v -608 -32 0
v -592 -32 0
v -576 -48 0
v -592 -48 0
v -592 -32 0
v -576 -32 0
v -560 -48 0
v -576 -48 0
v -576 -32 0
v -560 -32 0
v -80 -48 0
v -96 -48 0
v -96 -32 0
v -80 -32 0
v -64 -48 0
v -80 -48 0
v -80 -32 0
v -64 -32 0
v -48 -48 0
v -64 -48 0
v -64 -32 0
v -48 -32 0
v -32 -48 0
v -48 -48 0
v -48 -32 0
v -32 -32 0
v -608 -32 0
v -624 -32 0
v -624 -16 0
v -608 -16 0
v -592 -32 0
v -608 -32 0
v -608 -16 0
v -592 -16 0
v -576 -32 0
v -592 -32 0
v -592 -16 0
v -576 -16 0
v -560 -32 0
v -576 -32 0
v -576 -16 0
v -560 -16 0
v -80 -32 0
v -96 -32 0
v -96 -16 0
v -80 -16 0
v -64 -32 0
v -80 -32 0
v -80 -16 0
v -64 -16 0
v -48 -32 0
v -64 -32 0
v -64 -16 0
v -48 -16 0
v -32 -32 0
v -48 -32 0
v -48 -16 0
v -32 -16 0
v -608 -16 0
v -624 -16 0
v -624 0 0
v -608 0 0
v -592 -16 0
v -608 -16 0
v -608 0 0
v -592 0 0
v -576 -16 0
v -592 -16 0
v -592 0 0
v -576 0 0
v -560 -16 0
v -576 -16 0
v -576 0 0
v -560 0 0
v -80 -16 0
v -96 -16 0
v -96 0 0
v -80 0 0
v -64 -16 0
v -80 -16 0
v -80 0 0
v -64 0 0
v -48 -16 0
v -64 -16 0
v -64 0 0
v -48 0 0
v -32 -16 0
v -48 -16 0
v -48 0 0
v -32 0 0

# Texture cooridinates (Count = 60)
vt 0.21875 0.9375
vt 0.25 0.9375
vt 0.25 0.96875
vt 0.21875 0.96875
vt 0.1875 0.9375
vt 0.1875 0.96875
vt 0.15625 0.9375
vt 0.15625 0.96875
vt 0.125 0.9375
vt 0.125 0.96875
vt 0.25 1
vt 0.21875 1
vt 0.1875 1
vt 0.15625 1
vt 0.125 1
vt 0.09375 0.375
vt 0.125 0.375
vt 0.125 0.40625
vt 0.09375 0.40625
vt 0.0625 0.375
vt 0.0625 0.40625
vt 0.03125 0.375
vt 0.03125 0.40625
vt 0 0.375
vt 0 0.40625
vt 0.125 0.4375
vt 0.09375 0.4375
vt 0.0625 0.4375
vt 0.03125 0.4375
vt 0 0.4375
vt 0.125 0.46875
vt 0.09375 0.46875
vt 0.0625 0.46875
vt 0.03125 0.46875
vt 0 0.46875
vt 0.125 0.5
vt 0.09375 0.5
vt 0.0625 0.5
vt 0.03125 0.5
vt 0 0.5
vt 0.125 0.53125
vt 0.09375 0.53125
vt 0.0625 0.53125
vt 0.03125 0.53125
vt 0 0.53125
vt 0.125 0.5625
vt 0.09375 0.5625
vt 0.0625 0.5625
vt 0.03125 0.5625
vt 0 0.5625
vt 0.125 0.59375
vt 0.09375 0.59375
vt 0.0625 0.59375
vt 0.03125 0.59375
vt 0 0.59375
vt 0.125 0.625
vt 0.09375 0.625
vt 0.0625 0.625
vt 0.03125 0.625
vt 0 0.625

# Normal
vn 0 0 -1

# Mesh description
g Central-Hub_mesh_0009

# Faces
f 1/1/1 2/2/1 3/3/1 4/4/1
f 5/5/1 6/1/1 7/4/1 8/6/1
f 9/1/1 10/2/1 11/3/1 12/4/1
f 13/5/1 14/1/1 15/4/1 16/6/1
f 17/7/1 18/5/1 19/6/1 20/8/1
f 21/9/1 22/7/1 23/8/1 24/10/1
f 25/4/1 26/3/1 27/11/1 28/12/1
f 29/6/1 30/4/1 31/12/1 32/13/1
f 33/4/1 34/3/1 35/11/1 36/12/1
f 37/6/1 38/4/1 39/12/1 40/13/1
f 41/8/1 42/6/1 43/13/1 44/14/1
f 45/10/1 46/8/1 47/14/1 48/15/1
f 49/1/1 50/2/1 51/3/1 52/4/1
f 53/5/1 54/1/1 55/4/1 56/6/1
f 57/1/1 58/2/1 59/3/1 60/4/1
f 61/5/1 62/1/1 63/4/1 64/6/1
f 65/7/1 66/5/1 67/6/1 68/8/1
f 69/9/1 70/7/1 71/8/1 72/10/1
f 73/4/1 74/3/1 75/11/1 76/12/1
f 77/6/1 78/4/1 79/12/1 80/13/1
f 81/4/1 82/3/1 83/11/1 84/12/1
f 85/6/1 86/4/1 87/12/1 88/13/1
f 89/8/1 90/6/1 91/13/1 92/14/1
f 93/10/1 94/8/1 95/14/1 96/15/1
f 97/16/1 98/17/1 99/18/1 100/19/1
f 101/20/1 102/16/1 103/19/1 104/21/1
f 105/22/1 106/20/1 107/21/1 108/23/1
f 109/24/1 110/22/1 111/23/1 112/25/1
f 113/19/1 114/18/1 115/26/1 116/27/1
f 117/21/1 118/19/1 119/27/1 120/28/1
f 121/23/1 122/21/1 123/28/1 124/29/1
f 125/25/1 126/23/1 127/29/1 128/30/1
f 129/27/1 130/26/1 131/31/1 132/32/1
f 133/28/1 134/27/1 135/32/1 136/33/1
f 137/29/1 138/28/1 139/33/1 140/34/1
f 141/30/1 142/29/1 143/34/1 144/35/1
f 145/16/1 146/17/1 147/18/1 148/19/1
f 149/20/1 150/16/1 151/19/1 152/21/1
f 153/22/1 154/20/1 155/21/1 156/23/1
f 157/24/1 158/22/1 159/23/1 160/25/1
f 161/32/1 162/31/1 163/36/1 164/37/1
f 165/33/1 166/32/1 167/37/1 168/38/1
f 169/34/1 170/33/1 171/38/1 172/39/1
f 173/35/1 174/34/1 175/39/1 176/40/1
f 177/19/1 178/18/1 179/26/1 180/27/1
f 181/21/1 182/19/1 183/27/1 184/28/1
f 185/23/1 186/21/1 187/28/1 188/29/1
f 189/25/1 190/23/1 191/29/1 192/30/1
f 193/37/1 194/36/1 195/41/1 196/42/1
f 197/38/1 198/37/1 199/42/1 200/43/1
f 201/39/1 202/38/1 203/43/1 204/44/1
f 205/40/1 206/39/1 207/44/1 208/45/1
f 209/27/1 210/26/1 211/31/1 212/32/1
f 213/28/1 214/27/1 215/32/1 216/33/1
f 217/29/1 218/28/1 219/33/1 220/34/1
f 221/30/1 222/29/1 223/34/1 224/35/1
f 225/42/1 226/41/1 227/46/1 228/47/1
f 229/43/1 230/42/1 231/47/1 232/48/1
f 233/44/1 234/43/1 235/48/1 236/49/1
f 237/45/1 238/44/1 239/49/1 240/50/1
f 241/32/1 242/31/1 243/36/1 244/37/1
f 245/33/1 246/32/1 247/37/1 248/38/1
f 249/34/1 250/33/1 251/38/1 252/39/1
f 253/35/1 254/34/1 255/39/1 256/40/1
f 257/47/1 258/46/1 259/51/1 260/52/1
f 261/48/1 262/47/1 263/52/1 264/53/1
f 265/49/1 266/48/1 267/53/1 268/54/1
f 269/50/1 270/49/1 271/54/1 272/55/1
f 273/37/1 274/36/1 275/41/1 276/42/1
f 277/38/1 278/37/1 279/42/1 280/43/1
f 281/39/1 282/38/1 283/43/1 284/44/1
f 285/40/1 286/39/1 287/44/1 288/45/1
f 289/52/1 290/51/1 291/56/1 292/57/1
f 293/53/1 294/52/1 295/57/1 296/58/1
f 297/54/1 298/53/1 299/58/1 300/59/1
f 301/55/1 302/54/1 303/59/1 304/60/1
f 305/42/1 306/41/1 307/46/1 308/47/1
f 309/43/1 310/42/1 311/47/1 312/48/1
f 313/44/1 314/43/1 315/48/1 316/49/1
f 317/45/1 318/44/1 319/49/1 320/50/1
f 321/47/1 322/46/1 323/51/1 324/52/1
f 325/48/1 326/47/1 327/52/1 328/53/1
f 329/49/1 330/48/1 331/53/1 332/54/1
f 333/50/1 334/49/1 335/54/1 336/55/1
f 337/52/1 338/51/1 339/56/1 340/57/1
f 341/53/1 342/52/1 343/57/1 344/58/1
f 345/54/1 346/53/1 347/58/1 348/59/1
f 349/55/1 350/54/1 351/59/1 352/60/1
f 353/16/1 354/17/1 355/18/1 356/19/1
f 357/20/1 358/16/1 359/19/1 360/21/1
f 361/22/1 362/20/1 363/21/1 364/23/1
f 365/24/1 366/22/1 367/23/1 368/25/1
f 369/16/1 370/17/1 371/18/1 372/19/1
f 373/20/1 374/16/1 375/19/1 376/21/1
f 377/22/1 378/20/1 379/21/1 380/23/1
f 381/24/1 382/22/1 383/23/1 384/25/1
f 385/19/1 386/18/1 387/26/1 388/27/1
f 389/21/1 390/19/1 391/27/1 392/28/1
f 393/23/1 394/21/1 395/28/1 396/29/1
f 397/25/1 398/23/1 399/29/1 400/30/1
f 401/19/1 402/18/1 403/26/1 404/27/1
f 405/21/1 406/19/1 407/27/1 408/28/1
f 409/23/1 410/21/1 411/28/1 412/29/1
f 413/25/1 414/23/1 415/29/1 416/30/1
f 417/27/1 418/26/1 419/31/1 420/32/1
f 421/28/1 422/27/1 423/32/1 424/33/1
f 425/29/1 426/28/1 427/33/1 428/34/1
f 429/30/1 430/29/1 431/34/1 432/35/1
f 433/27/1 434/26/1 435/31/1 436/32/1
f 437/28/1 438/27/1 439/32/1 440/33/1
f 441/29/1 442/28/1 443/33/1 444/34/1
f 445/30/1 446/29/1 447/34/1 448/35/1
f 449/32/1 450/31/1 451/36/1 452/37/1
f 453/33/1 454/32/1 455/37/1 456/38/1
f 457/34/1 458/33/1 459/38/1 460/39/1
f 461/35/1 462/34/1 463/39/1 464/40/1
f 465/32/1 466/31/1 467/36/1 468/37/1
f 469/33/1 470/32/1 471/37/1 472/38/1
f 473/34/1 474/33/1 475/38/1 476/39/1
f 477/35/1 478/34/1 479/39/1 480/40/1
f 481/37/1 482/36/1 483/41/1 484/42/1
f 485/38/1 486/37/1 487/42/1 488/43/1
f 489/39/1 490/38/1 491/43/1 492/44/1
f 493/40/1 494/39/1 495/44/1 496/45/1
f 497/37/1 498/36/1 499/41/1 500/42/1
f 501/38/1 502/37/1 503/42/1 504/43/1
f 505/39/1 506/38/1 507/43/1 508/44/1
f 509/40/1 510/39/1 511/44/1 512/45/1
f 513/42/1 514/41/1 515/46/1 516/47/1
f 517/43/1 518/42/1 519/47/1 520/48/1
f 521/44/1 522/43/1 523/48/1 524/49/1
f 525/45/1 526/44/1 527/49/1 528/50/1
f 529/42/1 530/41/1 531/46/1 532/47/1
f 533/43/1 534/42/1 535/47/1 536/48/1
f 537/44/1 538/43/1 539/48/1 540/49/1
f 541/45/1 542/44/1 543/49/1 544/50/1
f 545/47/1 546/46/1 547/51/1 548/52/1
f 549/48/1 550/47/1 551/52/1 552/53/1
f 553/49/1 554/48/1 555/53/1 556/54/1
f 557/50/1 558/49/1 559/54/1 560/55/1
f 561/47/1 562/46/1 563/51/1 564/52/1
f 565/48/1 566/47/1 567/52/1 568/53/1
f 569/49/1 570/48/1 571/53/1 572/54/1
f 573/50/1 574/49/1 575/54/1 576/55/1
f 577/52/1 578/51/1 579/56/1 580/57/1
f 581/53/1 582/52/1 583/57/1 584/58/1
f 585/54/1 586/53/1 587/58/1 588/59/1
f 589/55/1 590/54/1 591/59/1 592/60/1
f 593/52/1 594/51/1 595/56/1 596/57/1
f 597/53/1 598/52/1 599/57/1 600/58/1
f 601/54/1 602/53/1 603/58/1 604/59/1
f 605/55/1 606/54/1 607/59/1 608/60/1

