# Tiled2Unity generated file. Do not modify by hand.
# Wavefront file for 'Central-Hub_mesh_0010.obj'

# Vertices (Count = 200)
v -560 -448 0
v -576 -448 0
v -576 -432 0
v -560 -432 0
v -544 -448 0
v -560 -448 0
v -560 -432 0
v -544 -432 0
v -528 -448 0
v -544 -448 0
v -544 -432 0
v -528 -432 0
v -512 -448 0
v -528 -448 0
v -528 -432 0
v -512 -432 0
v -496 -448 0
v -512 -448 0
v -512 -432 0
v -496 -432 0
v -288 -448 0
v -304 -448 0
v -304 -432 0
v -288 -432 0
v -272 -448 0
v -288 -448 0
v -288 -432 0
v -272 -432 0
v -256 -448 0
v -272 -448 0
v -272 -432 0
v -256 -432 0
v -240 -448 0
v -256 -448 0
v -256 -432 0
v -240 -432 0
v -224 -448 0
v -240 -448 0
v -240 -432 0
v -224 -432 0
v -560 -432 0
v -576 -432 0
v -576 -416 0
v -560 -416 0
v -544 -432 0
v -560 -432 0
v -560 -416 0
v -544 -416 0
v -528 -432 0
v -544 -432 0
v -544 -416 0
v -528 -416 0
v -512 -432 0
v -528 -432 0
v -528 -416 0
v -512 -416 0
v -496 -432 0
v -512 -432 0
v -512 -416 0
v -496 -416 0
v -288 -432 0
v -304 -432 0
v -304 -416 0
v -288 -416 0
v -272 -432 0
v -288 -432 0
v -288 -416 0
v -272 -416 0
v -256 -432 0
v -272 -432 0
v -272 -416 0
v -256 -416 0
v -240 -432 0
v -256 -432 0
v -256 -416 0
v -240 -416 0
v -224 -432 0
v -240 -432 0
v -240 -416 0
v -224 -416 0
v -560 -416 0
v -576 -416 0
v -576 -400 0
v -560 -400 0
v -544 -416 0
v -560 -416 0
v -560 -400 0
v -544 -400 0
v -528 -416 0
v -544 -416 0
v -544 -400 0
v -528 -400 0
v -512 -416 0
v -528 -416 0
v -528 -400 0
v -512 -400 0
v -496 -416 0
v -512 -416 0
v -512 -400 0
v -496 -400 0
v -288 -416 0
v -304 -416 0
v -304 -400 0
v -288 -400 0
v -272 -416 0
v -288 -416 0
v -288 -400 0
v -272 -400 0
v -256 -416 0
v -272 -416 0
v -272 -400 0
v -256 -400 0
v -240 -416 0
v -256 -416 0
v -256 -400 0
v -240 -400 0
v -224 -416 0
v -240 -416 0
v -240 -400 0
v -224 -400 0
v -560 -400 0
v -576 -400 0
v -576 -384 0
v -560 -384 0
v -544 -400 0
v -560 -400 0
v -560 -384 0
v -544 -384 0
v -528 -400 0
v -544 -400 0
v -544 -384 0
v -528 -384 0
v -512 -400 0
v -528 -400 0
v -528 -384 0
v -512 -384 0
v -496 -400 0
v -512 -400 0
v -512 -384 0
v -496 -384 0
v -288 -400 0
v -304 -400 0
v -304 -384 0
v -288 -384 0
v -272 -400 0
v -288 -400 0
v -288 -384 0
v -272 -384 0
v -256 -400 0
v -272 -400 0
v -272 -384 0
v -256 -384 0
v -240 -400 0
v -256 -400 0
v -256 -384 0
v -240 -384 0
v -224 -400 0
v -240 -400 0
v -240 -384 0
v -224 -384 0
v -560 -384 0
v -576 -384 0
v -576 -368 0
v -560 -368 0
v -544 -384 0
v -560 -384 0
v -560 -368 0
v -544 -368 0
v -528 -384 0
v -544 -384 0
v -544 -368 0
v -528 -368 0
v -512 -384 0
v -528 -384 0
v -528 -368 0
v -512 -368 0
v -496 -384 0
v -512 -384 0
v -512 -368 0
v -496 -368 0
v -288 -384 0
v -304 -384 0
v -304 -368 0
v -288 -368 0
v -272 -384 0
v -288 -384 0
v -288 -368 0
v -272 -368 0
v -256 -384 0
v -272 -384 0
v -272 -368 0
v -256 -368 0
v -240 -384 0
v -256 -384 0
v -256 -368 0
v -240 -368 0
v -224 -384 0
v -240 -384 0
v -240 -368 0
v -224 -368 0

# Texture cooridinates (Count = 72)
vt 0.07024793 0.6140684
vt 0.08677686 0.6140684
vt 0.08677686 0.6444867
vt 0.07024793 0.6444867
vt 0.05268595 0.6140684
vt 0.06921487 0.6140684
vt 0.06921487 0.6444867
vt 0.05268595 0.6444867
vt 0.03512397 0.6140684
vt 0.05165289 0.6140684
vt 0.05165289 0.6444867
vt 0.03512397 0.6444867
vt 0.07024793 0.7110266
vt 0.08677686 0.7110266
vt 0.08677686 0.7414448
vt 0.07024793 0.7414448
vt 0.05268595 0.7110266
vt 0.06921487 0.7110266
vt 0.06921487 0.7414448
vt 0.05268595 0.7414448
vt 0.03512397 0.7110266
vt 0.05165289 0.7110266
vt 0.05165289 0.7414448
vt 0.03512397 0.7414448
vt 0.07024793 0.6463878
vt 0.08677686 0.6463878
vt 0.08677686 0.6768061
vt 0.07024793 0.6768061
vt 0.05268595 0.6463878
vt 0.06921487 0.6463878
vt 0.06921487 0.6768061
vt 0.05268595 0.6768061
vt 0.03512397 0.6463878
vt 0.05165289 0.6463878
vt 0.05165289 0.6768061
vt 0.03512397 0.6768061
vt 0.07024793 0.743346
vt 0.08677686 0.743346
vt 0.08677686 0.7737643
vt 0.07024793 0.7737643
vt 0.05268595 0.743346
vt 0.06921487 0.743346
vt 0.06921487 0.7737643
vt 0.05268595 0.7737643
vt 0.03512397 0.743346
vt 0.05165289 0.743346
vt 0.05165289 0.7737643
vt 0.03512397 0.7737643
vt 0.07024793 0.6787072
vt 0.08677686 0.6787072
vt 0.08677686 0.7091255
vt 0.07024793 0.7091255
vt 0.05268595 0.6787072
vt 0.06921487 0.6787072
vt 0.06921487 0.7091255
vt 0.05268595 0.7091255
vt 0.03512397 0.6787072
vt 0.05165289 0.6787072
vt 0.05165289 0.7091255
vt 0.03512397 0.7091255
vt 0.07024793 0.7756654
vt 0.08677686 0.7756654
vt 0.08677686 0.8060837
vt 0.07024793 0.8060837
vt 0.05268595 0.7756654
vt 0.06921487 0.7756654
vt 0.06921487 0.8060837
vt 0.05268595 0.8060837
vt 0.03512397 0.7756654
vt 0.05165289 0.7756654
vt 0.05165289 0.8060837
vt 0.03512397 0.8060837

# Normal
vn 0 0 -1

# Mesh description
g Central-Hub_mesh_0010

# Faces
f 1/1/1 2/2/1 3/3/1 4/4/1
f 5/5/1 6/6/1 7/7/1 8/8/1
f 9/5/1 10/6/1 11/7/1 12/8/1
f 13/5/1 14/6/1 15/7/1 16/8/1
f 17/9/1 18/10/1 19/11/1 20/12/1
f 21/13/1 22/14/1 23/15/1 24/16/1
f 25/17/1 26/18/1 27/19/1 28/20/1
f 29/17/1 30/18/1 31/19/1 32/20/1
f 33/17/1 34/18/1 35/19/1 36/20/1
f 37/21/1 38/22/1 39/23/1 40/24/1
f 41/25/1 42/26/1 43/27/1 44/28/1
f 45/29/1 46/30/1 47/31/1 48/32/1
f 49/29/1 50/30/1 51/31/1 52/32/1
f 53/29/1 54/30/1 55/31/1 56/32/1
f 57/33/1 58/34/1 59/35/1 60/36/1
f 61/37/1 62/38/1 63/39/1 64/40/1
f 65/41/1 66/42/1 67/43/1 68/44/1
f 69/41/1 70/42/1 71/43/1 72/44/1
f 73/41/1 74/42/1 75/43/1 76/44/1
f 77/45/1 78/46/1 79/47/1 80/48/1
f 81/25/1 82/26/1 83/27/1 84/28/1
f 85/29/1 86/30/1 87/31/1 88/32/1
f 89/29/1 90/30/1 91/31/1 92/32/1
f 93/29/1 94/30/1 95/31/1 96/32/1
f 97/33/1 98/34/1 99/35/1 100/36/1
f 101/37/1 102/38/1 103/39/1 104/40/1
f 105/41/1 106/42/1 107/43/1 108/44/1
f 109/41/1 110/42/1 111/43/1 112/44/1
f 113/41/1 114/42/1 115/43/1 116/44/1
f 117/45/1 118/46/1 119/47/1 120/48/1
f 121/25/1 122/26/1 123/27/1 124/28/1
f 125/29/1 126/30/1 127/31/1 128/32/1
f 129/29/1 130/30/1 131/31/1 132/32/1
f 133/29/1 134/30/1 135/31/1 136/32/1
f 137/33/1 138/34/1 139/35/1 140/36/1
f 141/37/1 142/38/1 143/39/1 144/40/1
f 145/41/1 146/42/1 147/43/1 148/44/1
f 149/41/1 150/42/1 151/43/1 152/44/1
f 153/41/1 154/42/1 155/43/1 156/44/1
f 157/45/1 158/46/1 159/47/1 160/48/1
f 161/49/1 162/50/1 163/51/1 164/52/1
f 165/53/1 166/54/1 167/55/1 168/56/1
f 169/53/1 170/54/1 171/55/1 172/56/1
f 173/53/1 174/54/1 175/55/1 176/56/1
f 177/57/1 178/58/1 179/59/1 180/60/1
f 181/61/1 182/62/1 183/63/1 184/64/1
f 185/65/1 186/66/1 187/67/1 188/68/1
f 189/65/1 190/66/1 191/67/1 192/68/1
f 193/65/1 194/66/1 195/67/1 196/68/1
f 197/69/1 198/70/1 199/71/1 200/72/1

