# Tiled2Unity generated file. Do not modify by hand.
# Wavefront file for 'Central-Hub_mesh_0006.obj'

# Vertices (Count = 40)
v -400 -272 0
v -416 -272 0
v -416 -256 0
v -400 -256 0
v -384 -272 0
v -400 -272 0
v -400 -256 0
v -384 -256 0
v -416 -240 0
v -432 -240 0
v -432 -224 0
v -416 -224 0
v -400 -240 0
v -416 -240 0
v -416 -224 0
v -400 -224 0
v -384 -240 0
v -400 -240 0
v -400 -224 0
v -384 -224 0
v -368 -240 0
v -384 -240 0
v -384 -224 0
v -368 -224 0
v -416 -224 0
v -432 -224 0
v -432 -208 0
v -416 -208 0
v -400 -224 0
v -416 -224 0
v -416 -208 0
v -400 -208 0
v -384 -224 0
v -400 -224 0
v -400 -208 0
v -384 -208 0
v -368 -224 0
v -384 -224 0
v -384 -208 0
v -368 -208 0

# Texture cooridinates (Count = 28)
vt 0.3161157 0.8079848
vt 0.3326446 0.8079848
vt 0.3326446 0.838403
vt 0.3161157 0.838403
vt 0.8605372 0.09695816
vt 0.8770661 0.09695816
vt 0.8770661 0.1273764
vt 0.8605372 0.1273764
vt 0.8429752 0.09695816
vt 0.8595041 0.09695816
vt 0.8595041 0.1273764
vt 0.8429752 0.1273764
vt 0.8254132 0.09695816
vt 0.8419421 0.09695816
vt 0.8419421 0.1273764
vt 0.8254132 0.1273764
vt 0.8605372 0.161597
vt 0.8770661 0.161597
vt 0.8770661 0.1920152
vt 0.8605372 0.1920152
vt 0.8429752 0.161597
vt 0.8595041 0.161597
vt 0.8595041 0.1920152
vt 0.8429752 0.1920152
vt 0.8254132 0.161597
vt 0.8419421 0.161597
vt 0.8419421 0.1920152
vt 0.8254132 0.1920152

# Normal
vn 0 0 -1

# Mesh description
g Central-Hub_mesh_0006

# Faces
f 1/1/1 2/2/1 3/3/1 4/4/1
f 5/1/1 6/2/1 7/3/1 8/4/1
f 9/5/1 10/6/1 11/7/1 12/8/1
f 13/9/1 14/10/1 15/11/1 16/12/1
f 17/9/1 18/10/1 19/11/1 20/12/1
f 21/13/1 22/14/1 23/15/1 24/16/1
f 25/17/1 26/18/1 27/19/1 28/20/1
f 29/21/1 30/22/1 31/23/1 32/24/1
f 33/21/1 34/22/1 35/23/1 36/24/1
f 37/25/1 38/26/1 39/27/1 40/28/1

