# Tiled2Unity generated file. Do not modify by hand.
# Wavefront file for 'Central-Hub_mesh_0003.obj'

# Vertices (Count = 424)
v -400 -480 0
v -416 -480 0
v -416 -464 0
v -400 -464 0
v -384 -480 0
v -400 -480 0
v -400 -464 0
v -384 -464 0
v -400 -464 0
v -416 -464 0
v -416 -448 0
v -400 -448 0
v -384 -464 0
v -400 -464 0
v -400 -448 0
v -384 -448 0
v -400 -448 0
v -416 -448 0
v -416 -432 0
v -400 -432 0
v -384 -448 0
v -400 -448 0
v -400 -432 0
v -384 -432 0
v -400 -432 0
v -416 -432 0
v -416 -416 0
v -400 -416 0
v -384 -432 0
v -400 -432 0
v -400 -416 0
v -384 -416 0
v -400 -416 0
v -416 -416 0
v -416 -400 0
v -400 -400 0
v -384 -416 0
v -400 -416 0
v -400 -400 0
v -384 -400 0
v -400 -400 0
v -416 -400 0
v -416 -384 0
v -400 -384 0
v -384 -400 0
v -400 -400 0
v -400 -384 0
v -384 -384 0
v -400 -384 0
v -416 -384 0
v -416 -368 0
v -400 -368 0
v -384 -384 0
v -400 -384 0
v -400 -368 0
v -384 -368 0
v -400 -368 0
v -416 -368 0
v -416 -352 0
v -400 -352 0
v -384 -368 0
v -400 -368 0
v -400 -352 0
v -384 -352 0
v -736 -352 0
v -752 -352 0
v -752 -336 0
v -736 -336 0
v -720 -352 0
v -736 -352 0
v -736 -336 0
v -720 -336 0
v -704 -352 0
v -720 -352 0
v -720 -336 0
v -704 -336 0
v -688 -352 0
v -704 -352 0
v -704 -336 0
v -688 -336 0
v -672 -352 0
v -688 -352 0
v -688 -336 0
v -672 -336 0
v -656 -352 0
v -672 -352 0
v -672 -336 0
v -656 -336 0
v -640 -352 0
v -656 -352 0
v -656 -336 0
v -640 -336 0
v -624 -352 0
v -640 -352 0
v -640 -336 0
v -624 -336 0
v -608 -352 0
v -624 -352 0
v -624 -336 0
v -608 -336 0
v -592 -352 0
v -608 -352 0
v -608 -336 0
v -592 -336 0
v -576 -352 0
v -592 -352 0
v -592 -336 0
v -576 -336 0
v -560 -352 0
v -576 -352 0
v -576 -336 0
v -560 -336 0
v -544 -352 0
v -560 -352 0
v -560 -336 0
v -544 -336 0
v -528 -352 0
v -544 -352 0
v -544 -336 0
v -528 -336 0
v -512 -352 0
v -528 -352 0
v -528 -336 0
v -512 -336 0
v -496 -352 0
v -512 -352 0
v -512 -336 0
v -496 -336 0
v -480 -352 0
v -496 -352 0
v -496 -336 0
v -480 -336 0
v -464 -352 0
v -480 -352 0
v -480 -336 0
v -464 -336 0
v -448 -352 0
v -464 -352 0
v -464 -336 0
v -448 -336 0
v -432 -352 0
v -448 -352 0
v -448 -336 0
v -432 -336 0
v -416 -352 0
v -432 -352 0
v -432 -336 0
v -416 -336 0
v -400 -352 0
v -416 -352 0
v -416 -336 0
v -400 -336 0
v -384 -352 0
v -400 -352 0
v -400 -336 0
v -384 -336 0
v -368 -352 0
v -384 -352 0
v -384 -336 0
v -368 -336 0
v -352 -352 0
v -368 -352 0
v -368 -336 0
v -352 -336 0
v -336 -352 0
v -352 -352 0
v -352 -336 0
v -336 -336 0
v -320 -352 0
v -336 -352 0
v -336 -336 0
v -320 -336 0
v -304 -352 0
v -320 -352 0
v -320 -336 0
v -304 -336 0
v -288 -352 0
v -304 -352 0
v -304 -336 0
v -288 -336 0
v -272 -352 0
v -288 -352 0
v -288 -336 0
v -272 -336 0
v -256 -352 0
v -272 -352 0
v -272 -336 0
v -256 -336 0
v -240 -352 0
v -256 -352 0
v -256 -336 0
v -240 -336 0
v -224 -352 0
v -240 -352 0
v -240 -336 0
v -224 -336 0
v -208 -352 0
v -224 -352 0
v -224 -336 0
v -208 -336 0
v -192 -352 0
v -208 -352 0
v -208 -336 0
v -192 -336 0
v -176 -352 0
v -192 -352 0
v -192 -336 0
v -176 -336 0
v -160 -352 0
v -176 -352 0
v -176 -336 0
v -160 -336 0
v -144 -352 0
v -160 -352 0
v -160 -336 0
v -144 -336 0
v -128 -352 0
v -144 -352 0
v -144 -336 0
v -128 -336 0
v -112 -352 0
v -128 -352 0
v -128 -336 0
v -112 -336 0
v -96 -352 0
v -112 -352 0
v -112 -336 0
v -96 -336 0
v -80 -352 0
v -96 -352 0
v -96 -336 0
v -80 -336 0
v -64 -352 0
v -80 -352 0
v -80 -336 0
v -64 -336 0
v -48 -352 0
v -64 -352 0
v -64 -336 0
v -48 -336 0
v -736 -336 0
v -752 -336 0
v -752 -320 0
v -736 -320 0
v -720 -336 0
v -736 -336 0
v -736 -320 0
v -720 -320 0
v -704 -336 0
v -720 -336 0
v -720 -320 0
v -704 -320 0
v -688 -336 0
v -704 -336 0
v -704 -320 0
v -688 -320 0
v -672 -336 0
v -688 -336 0
v -688 -320 0
v -672 -320 0
v -656 -336 0
v -672 -336 0
v -672 -320 0
v -656 -320 0
v -640 -336 0
v -656 -336 0
v -656 -320 0
v -640 -320 0
v -624 -336 0
v -640 -336 0
v -640 -320 0
v -624 -320 0
v -608 -336 0
v -624 -336 0
v -624 -320 0
v -608 -320 0
v -592 -336 0
v -608 -336 0
v -608 -320 0
v -592 -320 0
v -576 -336 0
v -592 -336 0
v -592 -320 0
v -576 -320 0
v -560 -336 0
v -576 -336 0
v -576 -320 0
v -560 -320 0
v -544 -336 0
v -560 -336 0
v -560 -320 0
v -544 -320 0
v -528 -336 0
v -544 -336 0
v -544 -320 0
v -528 -320 0
v -512 -336 0
v -528 -336 0
v -528 -320 0
v -512 -320 0
v -496 -336 0
v -512 -336 0
v -512 -320 0
v -496 -320 0
v -480 -336 0
v -496 -336 0
v -496 -320 0
v -480 -320 0
v -464 -336 0
v -480 -336 0
v -480 -320 0
v -464 -320 0
v -448 -336 0
v -464 -336 0
v -464 -320 0
v -448 -320 0
v -432 -336 0
v -448 -336 0
v -448 -320 0
v -432 -320 0
v -416 -336 0
v -432 -336 0
v -432 -320 0
v -416 -320 0
v -400 -336 0
v -416 -336 0
v -416 -320 0
v -400 -320 0
v -384 -336 0
v -400 -336 0
v -400 -320 0
v -384 -320 0
v -368 -336 0
v -384 -336 0
v -384 -320 0
v -368 -320 0
v -352 -336 0
v -368 -336 0
v -368 -320 0
v -352 -320 0
v -336 -336 0
v -352 -336 0
v -352 -320 0
v -336 -320 0
v -320 -336 0
v -336 -336 0
v -336 -320 0
v -320 -320 0
v -304 -336 0
v -320 -336 0
v -320 -320 0
v -304 -320 0
v -288 -336 0
v -304 -336 0
v -304 -320 0
v -288 -320 0
v -272 -336 0
v -288 -336 0
v -288 -320 0
v -272 -320 0
v -256 -336 0
v -272 -336 0
v -272 -320 0
v -256 -320 0
v -240 -336 0
v -256 -336 0
v -256 -320 0
v -240 -320 0
v -224 -336 0
v -240 -336 0
v -240 -320 0
v -224 -320 0
v -208 -336 0
v -224 -336 0
v -224 -320 0
v -208 -320 0
v -192 -336 0
v -208 -336 0
v -208 -320 0
v -192 -320 0
v -176 -336 0
v -192 -336 0
v -192 -320 0
v -176 -320 0
v -160 -336 0
v -176 -336 0
v -176 -320 0
v -160 -320 0
v -144 -336 0
v -160 -336 0
v -160 -320 0
v -144 -320 0
v -128 -336 0
v -144 -336 0
v -144 -320 0
v -128 -320 0
v -112 -336 0
v -128 -336 0
v -128 -320 0
v -112 -320 0
v -96 -336 0
v -112 -336 0
v -112 -320 0
v -96 -320 0
v -80 -336 0
v -96 -336 0
v -96 -320 0
v -80 -320 0
v -64 -336 0
v -80 -336 0
v -80 -320 0
v -64 -320 0
v -48 -336 0
v -64 -336 0
v -64 -320 0
v -48 -320 0
v -400 -320 0
v -416 -320 0
v -416 -304 0
v -400 -304 0
v -384 -320 0
v -400 -320 0
v -400 -304 0
v -384 -304 0

# Texture cooridinates (Count = 48)
vt 0.1580579 0.6463878
vt 0.1745868 0.6463878
vt 0.1745868 0.6768061
vt 0.1580579 0.6768061
vt 0.1229339 0.6463878
vt 0.1394628 0.6463878
vt 0.1394628 0.6768061
vt 0.1229339 0.6768061
vt 0.1580579 0.6140684
vt 0.1745868 0.6140684
vt 0.1745868 0.6444867
vt 0.1580579 0.6444867
vt 0.1404959 0.6140684
vt 0.1570248 0.6140684
vt 0.1570248 0.6444867
vt 0.1404959 0.6444867
vt 0.08780992 0.6787072
vt 0.1043388 0.6787072
vt 0.1043388 0.7091255
vt 0.08780992 0.7091255
vt 0.1053719 0.6787072
vt 0.1219008 0.6787072
vt 0.1219008 0.7091255
vt 0.1053719 0.7091255
vt 0.1229339 0.6140684
vt 0.1394628 0.6140684
vt 0.1394628 0.6444867
vt 0.1229339 0.6444867
vt 0.1580579 0.6787072
vt 0.1745868 0.6787072
vt 0.1745868 0.7091255
vt 0.1580579 0.7091255
vt 0.1404959 0.6787072
vt 0.1570248 0.6787072
vt 0.1570248 0.7091255
vt 0.1404959 0.7091255
vt 0.08780992 0.6463878
vt 0.1043388 0.6463878
vt 0.1043388 0.6768061
vt 0.08780992 0.6768061
vt 0.1053719 0.6463878
vt 0.1219008 0.6463878
vt 0.1219008 0.6768061
vt 0.1053719 0.6768061
vt 0.1229339 0.6787072
vt 0.1394628 0.6787072
vt 0.1394628 0.7091255
vt 0.1229339 0.7091255

# Normal
vn 0 0 -1

# Mesh description
g Central-Hub_mesh_0003

# Faces
f 1/1/1 2/2/1 3/3/1 4/4/1
f 5/5/1 6/6/1 7/7/1 8/8/1
f 9/1/1 10/2/1 11/3/1 12/4/1
f 13/5/1 14/6/1 15/7/1 16/8/1
f 17/1/1 18/2/1 19/3/1 20/4/1
f 21/5/1 22/6/1 23/7/1 24/8/1
f 25/1/1 26/2/1 27/3/1 28/4/1
f 29/5/1 30/6/1 31/7/1 32/8/1
f 33/1/1 34/2/1 35/3/1 36/4/1
f 37/5/1 38/6/1 39/7/1 40/8/1
f 41/1/1 42/2/1 43/3/1 44/4/1
f 45/5/1 46/6/1 47/7/1 48/8/1
f 49/1/1 50/2/1 51/3/1 52/4/1
f 53/5/1 54/6/1 55/7/1 56/8/1
f 57/1/1 58/2/1 59/3/1 60/4/1
f 61/5/1 62/6/1 63/7/1 64/8/1
f 65/9/1 66/10/1 67/11/1 68/12/1
f 69/13/1 70/14/1 71/15/1 72/16/1
f 73/13/1 74/14/1 75/15/1 76/16/1
f 77/13/1 78/14/1 79/15/1 80/16/1
f 81/13/1 82/14/1 83/15/1 84/16/1
f 85/13/1 86/14/1 87/15/1 88/16/1
f 89/13/1 90/14/1 91/15/1 92/16/1
f 93/13/1 94/14/1 95/15/1 96/16/1
f 97/13/1 98/14/1 99/15/1 100/16/1
f 101/13/1 102/14/1 103/15/1 104/16/1
f 105/13/1 106/14/1 107/15/1 108/16/1
f 109/13/1 110/14/1 111/15/1 112/16/1
f 113/13/1 114/14/1 115/15/1 116/16/1
f 117/13/1 118/14/1 119/15/1 120/16/1
f 121/13/1 122/14/1 123/15/1 124/16/1
f 125/13/1 126/14/1 127/15/1 128/16/1
f 129/13/1 130/14/1 131/15/1 132/16/1
f 133/13/1 134/14/1 135/15/1 136/16/1
f 137/13/1 138/14/1 139/15/1 140/16/1
f 141/13/1 142/14/1 143/15/1 144/16/1
f 145/13/1 146/14/1 147/15/1 148/16/1
f 149/17/1 150/18/1 151/19/1 152/20/1
f 153/21/1 154/22/1 155/23/1 156/24/1
f 157/13/1 158/14/1 159/15/1 160/16/1
f 161/13/1 162/14/1 163/15/1 164/16/1
f 165/13/1 166/14/1 167/15/1 168/16/1
f 169/13/1 170/14/1 171/15/1 172/16/1
f 173/13/1 174/14/1 175/15/1 176/16/1
f 177/13/1 178/14/1 179/15/1 180/16/1
f 181/13/1 182/14/1 183/15/1 184/16/1
f 185/13/1 186/14/1 187/15/1 188/16/1
f 189/13/1 190/14/1 191/15/1 192/16/1
f 193/13/1 194/14/1 195/15/1 196/16/1
f 197/13/1 198/14/1 199/15/1 200/16/1
f 201/13/1 202/14/1 203/15/1 204/16/1
f 205/13/1 206/14/1 207/15/1 208/16/1
f 209/13/1 210/14/1 211/15/1 212/16/1
f 213/13/1 214/14/1 215/15/1 216/16/1
f 217/13/1 218/14/1 219/15/1 220/16/1
f 221/13/1 222/14/1 223/15/1 224/16/1
f 225/13/1 226/14/1 227/15/1 228/16/1
f 229/13/1 230/14/1 231/15/1 232/16/1
f 233/13/1 234/14/1 235/15/1 236/16/1
f 237/25/1 238/26/1 239/27/1 240/28/1
f 241/29/1 242/30/1 243/31/1 244/32/1
f 245/33/1 246/34/1 247/35/1 248/36/1
f 249/33/1 250/34/1 251/35/1 252/36/1
f 253/33/1 254/34/1 255/35/1 256/36/1
f 257/33/1 258/34/1 259/35/1 260/36/1
f 261/33/1 262/34/1 263/35/1 264/36/1
f 265/33/1 266/34/1 267/35/1 268/36/1
f 269/33/1 270/34/1 271/35/1 272/36/1
f 273/33/1 274/34/1 275/35/1 276/36/1
f 277/33/1 278/34/1 279/35/1 280/36/1
f 281/33/1 282/34/1 283/35/1 284/36/1
f 285/33/1 286/34/1 287/35/1 288/36/1
f 289/33/1 290/34/1 291/35/1 292/36/1
f 293/33/1 294/34/1 295/35/1 296/36/1
f 297/33/1 298/34/1 299/35/1 300/36/1
f 301/33/1 302/34/1 303/35/1 304/36/1
f 305/33/1 306/34/1 307/35/1 308/36/1
f 309/33/1 310/34/1 311/35/1 312/36/1
f 313/33/1 314/34/1 315/35/1 316/36/1
f 317/33/1 318/34/1 319/35/1 320/36/1
f 321/33/1 322/34/1 323/35/1 324/36/1
f 325/37/1 326/38/1 327/39/1 328/40/1
f 329/41/1 330/42/1 331/43/1 332/44/1
f 333/33/1 334/34/1 335/35/1 336/36/1
f 337/33/1 338/34/1 339/35/1 340/36/1
f 341/33/1 342/34/1 343/35/1 344/36/1
f 345/33/1 346/34/1 347/35/1 348/36/1
f 349/33/1 350/34/1 351/35/1 352/36/1
f 353/33/1 354/34/1 355/35/1 356/36/1
f 357/33/1 358/34/1 359/35/1 360/36/1
f 361/33/1 362/34/1 363/35/1 364/36/1
f 365/33/1 366/34/1 367/35/1 368/36/1
f 369/33/1 370/34/1 371/35/1 372/36/1
f 373/33/1 374/34/1 375/35/1 376/36/1
f 377/33/1 378/34/1 379/35/1 380/36/1
f 381/33/1 382/34/1 383/35/1 384/36/1
f 385/33/1 386/34/1 387/35/1 388/36/1
f 389/33/1 390/34/1 391/35/1 392/36/1
f 393/33/1 394/34/1 395/35/1 396/36/1
f 397/33/1 398/34/1 399/35/1 400/36/1
f 401/33/1 402/34/1 403/35/1 404/36/1
f 405/33/1 406/34/1 407/35/1 408/36/1
f 409/33/1 410/34/1 411/35/1 412/36/1
f 413/45/1 414/46/1 415/47/1 416/48/1
f 417/1/1 418/2/1 419/3/1 420/4/1
f 421/5/1 422/6/1 423/7/1 424/8/1

