# Tiled2Unity generated file. Do not modify by hand.
# Wavefront file for 'Central-Hub_mesh_0011.obj'

# Vertices (Count = 32)
v -144 -432 0
v -176 -432 0
v -176 -400 0
v -144 -400 0
v -112 -432 0
v -144 -432 0
v -144 -400 0
v -112 -400 0
v -80 -432 0
v -112 -432 0
v -112 -400 0
v -80 -400 0
v -48 -432 0
v -80 -432 0
v -80 -400 0
v -48 -400 0
v -144 -400 0
v -176 -400 0
v -176 -368 0
v -144 -368 0
v -112 -400 0
v -144 -400 0
v -144 -368 0
v -112 -368 0
v -80 -400 0
v -112 -400 0
v -112 -368 0
v -80 -368 0
v -48 -400 0
v -80 -400 0
v -80 -368 0
v -48 -368 0

# Texture cooridinates (Count = 9)
vt 0.375 0.6875
vt 0.4375 0.6875
vt 0.4375 0.75
vt 0.375 0.75
vt 0.3125 0.6875
vt 0.3125 0.75
vt 0.4375 0.8125
vt 0.375 0.8125
vt 0.3125 0.8125

# Normal
vn 0 0 -1

# Mesh description
g Central-Hub_mesh_0011

# Faces
f 1/1/1 2/2/1 3/3/1 4/4/1
f 5/5/1 6/1/1 7/4/1 8/6/1
f 9/1/1 10/2/1 11/3/1 12/4/1
f 13/5/1 14/1/1 15/4/1 16/6/1
f 17/4/1 18/3/1 19/7/1 20/8/1
f 21/6/1 22/4/1 23/8/1 24/9/1
f 25/4/1 26/3/1 27/7/1 28/8/1
f 29/6/1 30/4/1 31/8/1 32/9/1

